# xmcd CD database file
#
# Track frame offsets:
#	150
#	24870
#	39707
#	68829
#	95188
#	114622
#	137508
#	157392
#	183134
#	210201
#	245393
#	266260
#
# Disc length: 3729 seconds
#
# Revision: 0
# Processed by: cddbd v1.5.1PL2 Copyright (c) Steve Scherf et al.
# Submitted via: CDex 1.51
#
DISCID=9f0e8f0c
DTITLE=Ivanow Jazz Group - swingdrome
DYEAR=2005
DGENRE=Jazz
TTITLE0=Jumpin' at the woodside
TTITLE1=Ring them bells
TTITLE2=Don't be that way
TTITLE3=Honeysucle rose
TTITLE4=Saint James Infirmary
TTITLE5=Moten's Swing
TTITLE6=I can't give you anything but love
TTITLE7=Gee Baby, ain't I good to you
TTITLE8=Basin street blues
TTITLE9=God bless' the child
TTITLE10=Just you, just me
TTITLE11=Bugle call rag
EXTD=YEAR: 2005
EXTT0=
EXTT1=
EXTT2=
EXTT3=
EXTT4=
EXTT5=
EXTT6=
EXTT7=
EXTT8=
EXTT9=
EXTT10=
EXTT11=
PLAYORDER=
